<?xml version="1.0" encoding="utf-8"?>
<!-- Generator: Adobe Illustrator 24.1.2, SVG Export Plug-In . SVG Version: 6.00 Build 0)  -->
<svg version="1.1" id="Layer_1" xmlns="http://www.w3.org/2000/svg" xmlns:xlink="http://www.w3.org/1999/xlink" x="0px" y="0px"
	 viewBox="0 0 588.44 349.84" style="enable-background:new 0 0 588.44 349.84;" xml:space="preserve">
<style type="text/css">
	.st0{fill:#1E4150;}
</style>
<g>
	<g>
		<g>
			<path class="st0" d="M287.76,190.22c0.43,9.55,8.77,14.41,15.88,14.41c6.34,0,11.02-3.04,13.63-7.98h9.37
				c-2.26,5.21-5.55,9.11-9.55,11.72c-3.99,2.69-8.68,3.99-13.45,3.99c-15.45,0-25-12.41-25-24.91c0-13.54,10.59-25.08,24.91-25.08
				c6.77,0,12.93,2.52,17.44,6.94c5.55,5.64,7.9,13.02,7.12,20.92H287.76z M319.17,183.19c-0.43-6.25-6.68-13.28-15.62-13.11
				c-9.2,0-15.19,6.68-15.62,13.11H319.17z"/>
			<path class="st0" d="M336.88,146.74h9.03v64.23h-9.03V146.74z"/>
			<path class="st0" d="M405.31,210.96h-9.03v-8.24c-3.3,6.34-10.07,9.63-17.53,9.63c-15.19,0-24.21-11.8-24.21-25
				c0-14.41,10.5-25,24.21-25c9.37,0,15.36,5.21,17.53,9.72v-8.33h9.03V210.96z M363.56,187.53c0.09,7.03,5.03,16.4,16.49,16.4
				c7.2,0,12.32-3.99,14.67-9.37c1.04-2.17,1.56-4.6,1.65-7.03c0.09-2.43-0.35-4.86-1.39-7.03c-2.26-5.47-7.55-9.72-15.1-9.72
				c-9.89,0-16.32,7.81-16.32,16.66V187.53z"/>
			<path class="st0" d="M419.82,170.78h-8.51v-7.03h8.51v-17.01h9.03v17.01h9.11v7.03h-9.11v40.18h-9.03V170.78z"/>
			<path class="st0" d="M448.7,190.22c0.43,9.55,8.77,14.41,15.88,14.41c6.34,0,11.02-3.04,13.63-7.98h9.37
				c-2.26,5.21-5.55,9.11-9.55,11.72c-3.99,2.69-8.68,3.99-13.45,3.99c-15.45,0-25-12.41-25-24.91c0-13.54,10.59-25.08,24.91-25.08
				c6.77,0,12.93,2.52,17.44,6.94c5.55,5.64,7.9,13.02,7.12,20.92H448.7z M480.12,183.19c-0.43-6.25-6.68-13.28-15.62-13.11
				c-9.2,0-15.19,6.68-15.62,13.11H480.12z"/>
		</g>
	</g>
	<g>
		<polygon class="st0" points="164.13,99.98 99.23,137.45 99.23,212.39 164.13,249.85 229.03,212.39 229.03,162.43 207.39,174.92 
			207.39,199.9 164.13,224.88 120.87,199.9 120.87,149.94 164.13,124.96 185.76,137.45 142.5,162.43 142.5,187.41 164.13,199.9 
			164.13,174.92 229.03,137.45 		"/>
	</g>
</g>
</svg>
