<?xml version="1.0" encoding="UTF-8"?>
<!-- Generator: Adobe Illustrator 12.0.0, SVG Export Plug-In . SVG Version: 6.00 Build 51448)  -->
<!DOCTYPE svg PUBLIC "-//W3C//DTD SVG 1.1//EN" "http://www.w3.org/Graphics/SVG/1.1/DTD/svg11.dtd" [
	<!ENTITY ns_svg "http://www.w3.org/2000/svg">
	<!ENTITY ns_xlink "http://www.w3.org/1999/xlink">
]>
<svg version="1.1" id="Layer_1" xmlns="http://www.w3.org/2000/svg" xmlns:xlink="http://www.w3.org/1999/xlink" width="596.342" height="212.765" viewBox="0 0 596.342 212.765" overflow="visible" enable-background="new 0 0 596.342 212.765" xml:space="preserve">
<rect y="4.387" width="73.841" height="208.378"/>
<rect x="209.004" y="4.387" width="73.215" height="208.378"/>
<rect x="374.209" y="4.387" width="73.21" height="208.378"/>
<path fill-rule="evenodd" clip-rule="evenodd" d="M327.898,0c-12.589,1.284-19.301,3.698-28.788,12.518  c-6.691,5.904-13.067,20.548-11.886,29.414c-0.753,21.907,18.394,41.922,40.674,41.301C383.273,81.511,383.101,2.715,327.898,0"/>
<path fill-rule="evenodd" clip-rule="evenodd" d="M538.777,118.267c-4.624-7.414-4.064-15.847,1.874-21.895  c5.234-9.697,11.711-19.14,17.529-28.785c7.16-12.685,15.734-26.639,23.779-38.8c2.771-4.877,6.337-10.042,8.76-15.017l1.874-2.506  l0.632-1.874l1.242-1.877l1.264-1.253l0.61-1.25V4.387h-80.095l-0.621,0.625l-1.253,2.502l-1.253,1.252l-1.251,2.499l-1.244,1.879  l-1.262,2.5l-1.874,2.505c-6.844,11.861-14.198,22.798-21.267,34.416c-7.293,15.592-26.337,38.362-30.046,54.438  c-1.588,11.092,23.976,45.22,29.414,55.69c6.376,10.228,13.444,23.039,20.024,32.552c1.223,4.4,4.808,6.986,7.505,12.508  l1.253,1.874l1.253,2.506l0.621,0.631h80.095L538.777,118.267"/>
<path fill-rule="evenodd" clip-rule="evenodd" d="M165.2,38.175C156.96-4.22,110.333,3.144,77.594,4.387l47.558,208.378h79.472  L165.2,38.175"/>
</svg>